<svg width="24" height="24" viewBox="0 0 24 24" fill="none" xmlns="http://www.w3.org/2000/svg">
  <path fill-rule="evenodd" clip-rule="evenodd" d="M12 2C6.477 2 2 6.477 2 12C2 16.418 4.865 20.167 8.839 21.498C9.339 21.593 9.516 21.295 9.516 21.036C9.516 20.803 9.509 20.154 9.504 19.317C6.726 19.915 6.139 17.962 6.139 17.962C5.685 16.810 5.029 16.513 5.029 16.513C4.121 15.882 5.097 15.895 5.097 15.895C6.102 15.965 6.63 16.925 6.63 16.925C7.521 18.436 8.97 18.008 9.535 17.758C9.627 17.118 9.889 16.691 10.176 16.418C7.955 16.143 5.62 15.332 5.62 11.507C5.62 10.393 6.01 9.484 6.649 8.776C6.545 8.530 6.201 7.517 6.747 6.142C6.747 6.142 7.587 5.879 9.493 7.172C10.292 6.955 11.15 6.846 12 6.842C12.85 6.846 13.707 6.955 14.507 7.172C16.413 5.879 17.252 6.142 17.252 6.142C17.799 7.517 17.456 8.530 17.351 8.776C17.991 9.484 18.379 10.393 18.379 11.507C18.379 15.343 16.04 16.140 13.813 16.410C14.172 16.747 14.492 17.417 14.492 18.435C14.492 19.877 14.479 20.706 14.479 21.036C14.479 21.298 14.655 21.598 15.162 21.498C19.135 20.164 22 16.418 22 12C22 6.477 17.523 2 12 2Z" fill="#183EC2"/>
</svg> 