<svg width="21" height="21" viewBox="0 0 21 21" fill="none" xmlns="http://www.w3.org/2000/svg">
<path d="M20.3407 6.84798C21.1764 9.09262 21.2188 11.5556 20.4611 13.8278C19.7033 16.0999 18.1909 18.0444 16.1751 19.338C14.1594 20.6317 11.7617 21.1967 9.38041 20.9392C6.99914 20.6816 4.77767 19.617 3.08513 17.9223C1.18389 16.0273 0.0813235 13.4757 0.00432174 10.7924C-0.07268 8.10921 0.881741 5.49853 2.67118 3.49764C4.46062 1.49675 6.94894 0.257866 9.62408 0.0359391C12.2992 -0.185988 14.9577 0.625922 17.0524 2.30459L19.005 0.35104C19.1134 0.242605 19.2421 0.15659 19.3838 0.0979055C19.5255 0.0392211 19.6773 0.00901669 19.8307 0.00901669C19.984 0.00901669 20.1359 0.0392211 20.2775 0.0979055C20.4192 0.15659 20.5479 0.242605 20.6564 0.35104C20.7648 0.459474 20.8508 0.588205 20.9095 0.729882C20.9682 0.871559 20.9984 1.02341 20.9984 1.17676C20.9984 1.33011 20.9682 1.48195 20.9095 1.62363C20.8508 1.76531 20.7648 1.89404 20.6564 2.00247L11.3306 11.3282C11.2222 11.4367 11.0935 11.5227 10.9518 11.5814C10.8101 11.64 10.6583 11.6702 10.5049 11.6702C10.3516 11.6702 10.1997 11.64 10.0581 11.5814C9.91637 11.5227 9.78764 11.4367 9.67921 11.3282C9.57077 11.2198 9.48476 11.0911 9.42607 10.9494C9.36739 10.8077 9.33719 10.6559 9.33719 10.5025C9.33719 10.3492 9.36739 10.1973 9.42607 10.0556C9.48476 9.91395 9.57077 9.78522 9.67921 9.67678L12.0106 7.34535C11.3535 7.03141 10.6148 6.93043 9.89759 7.05651C9.18034 7.18259 8.52035 7.52943 8.0097 8.04864C7.49906 8.56785 7.16324 9.23352 7.04911 9.95276C6.93497 10.672 7.04822 11.4089 7.37304 12.0607C7.69787 12.7125 8.21806 13.2466 8.86104 13.5886C9.50402 13.9305 10.2377 14.0632 10.9597 13.9681C11.6817 13.873 12.356 13.5548 12.8885 13.0581C13.4211 12.5613 13.7852 11.9107 13.9302 11.1971C13.9913 10.894 14.1702 10.6275 14.4277 10.4564C14.6852 10.2852 15.0002 10.2234 15.3033 10.2844C15.6064 10.3455 15.8729 10.5244 16.044 10.782C16.2152 11.0395 16.277 11.3544 16.216 11.6575C15.9677 12.8807 15.3332 13.9919 14.4061 14.8275C13.479 15.6632 12.3081 16.1791 11.0657 16.2994C9.82341 16.4197 8.57526 16.1381 7.505 15.4959C6.43474 14.8537 5.59889 13.8849 5.12047 12.7321C4.64206 11.5793 4.54634 10.3033 4.84741 9.09203C5.14847 7.88074 5.83043 6.79809 6.7929 6.00341C7.75537 5.20874 8.94752 4.74401 10.1939 4.67762C11.4403 4.61124 12.675 4.94671 13.7165 5.63466L15.3903 3.96671C13.818 2.79249 11.8752 2.22419 9.91803 2.36595C7.96081 2.50771 6.12023 3.35004 4.73358 4.73856C3.34694 6.12709 2.50711 7.96881 2.36801 9.92622C2.2289 11.8836 2.79984 13.8256 3.97619 15.3963C5.15253 16.9669 6.8555 18.0611 8.773 18.4782C10.6905 18.8953 12.6941 18.6075 14.4166 17.6674C16.1391 16.7273 17.4652 15.198 18.1518 13.3597C18.8384 11.5214 18.8395 9.49722 18.1549 7.65815C18.1005 7.51437 18.0749 7.36122 18.0799 7.20754C18.0848 7.05386 18.1201 6.90267 18.1838 6.76269C18.2474 6.62271 18.3381 6.4967 18.4506 6.39191C18.5631 6.28712 18.6953 6.20564 18.8394 6.15214C18.9836 6.09864 19.1369 6.07419 19.2905 6.0802C19.4442 6.0862 19.5951 6.12254 19.7347 6.18713C19.8742 6.25172 19.9996 6.34327 20.1036 6.45652C20.2076 6.56977 20.2882 6.70248 20.3407 6.847V6.84798Z" fill="black"/>
</svg>
