<svg width="21" height="21" viewBox="0 0 21 21" fill="none" xmlns="http://www.w3.org/2000/svg">
<path d="M20.3407 6.84802C21.1764 9.09267 21.2189 11.5557 20.4611 13.8278C19.7033 16.0999 18.1909 18.0444 16.1752 19.3381C14.1594 20.6317 11.7617 21.1967 9.38042 20.9392C6.99914 20.6817 4.77768 19.6171 3.08514 17.9223C1.1839 16.0274 0.0813294 13.4757 0.00432767 10.7925C-0.0726741 8.10926 0.881747 5.49857 2.67119 3.49768C4.46063 1.49679 6.94895 0.257913 9.62409 0.0359855C12.2992 -0.185942 14.9577 0.625969 17.0524 2.30464L19.005 0.351086C19.1134 0.242652 19.2421 0.156636 19.3838 0.0979519C19.5255 0.0392675 19.6773 0.00906308 19.8307 0.00906308C19.984 0.00906308 20.1359 0.0392675 20.2776 0.0979519C20.4192 0.156636 20.548 0.242652 20.6564 0.351086C20.7648 0.459521 20.8508 0.588252 20.9095 0.729928C20.9682 0.871605 20.9984 1.02345 20.9984 1.1768C20.9984 1.33015 20.9682 1.482 20.9095 1.62368C20.8508 1.76535 20.7648 1.89409 20.6564 2.00252L11.3306 11.3283C11.2222 11.4367 11.0935 11.5227 10.9518 11.5814C10.8101 11.6401 10.6583 11.6703 10.5049 11.6703C10.3516 11.6703 10.1997 11.6401 10.0581 11.5814C9.91638 11.5227 9.78765 11.4367 9.67922 11.3283C9.57078 11.2198 9.48477 11.0911 9.42608 10.9494C9.3674 10.8077 9.33719 10.6559 9.33719 10.5025C9.33719 10.3492 9.3674 10.1973 9.42608 10.0557C9.48477 9.914 9.57078 9.78526 9.67922 9.67683L12.0107 7.34539C11.3536 7.03145 10.6148 6.93048 9.8976 7.05656C9.18035 7.18264 8.52036 7.52948 8.00971 8.04869C7.49907 8.5679 7.16325 9.23357 7.04911 9.95281C6.93498 10.6721 7.04823 11.409 7.37305 12.0608C7.69787 12.7126 8.21807 13.2467 8.86105 13.5886C9.50403 13.9305 10.2377 14.0632 10.9597 13.9681C11.6817 13.873 12.356 13.5549 12.8885 13.0581C13.4211 12.5614 13.7852 11.9108 13.9302 11.1971C13.9913 10.894 14.1702 10.6276 14.4277 10.4564C14.6853 10.2853 15.0002 10.2234 15.3033 10.2845C15.6064 10.3455 15.8729 10.5245 16.044 10.782C16.2152 11.0395 16.277 11.3545 16.216 11.6576C15.9677 12.8808 15.3333 13.992 14.4061 14.8276C13.479 15.6632 12.3081 16.1791 11.0657 16.2995C9.82341 16.4198 8.57527 16.1381 7.50501 15.4959C6.43475 14.8537 5.5989 13.8849 5.12048 12.7321C4.64206 11.5793 4.54635 10.3034 4.84741 9.09208C5.14848 7.88079 5.83043 6.79814 6.7929 6.00346C7.75537 5.20878 8.94752 4.74405 10.1939 4.67767C11.4403 4.61129 12.675 4.94676 13.7165 5.6347L15.3903 3.96675C13.818 2.79254 11.8752 2.22424 9.91803 2.366C7.96082 2.50776 6.12023 3.35008 4.73359 4.73861C3.34694 6.12713 2.50712 7.96886 2.36801 9.92626C2.22891 11.8837 2.79984 13.8257 3.97619 15.3963C5.15254 16.967 6.8555 18.0611 8.773 18.4783C10.6905 18.8954 12.6941 18.6075 14.4166 17.6675C16.1391 16.7274 17.4652 15.1981 18.1518 13.3597C18.8384 11.5214 18.8395 9.49727 18.155 7.6582C18.1005 7.51441 18.075 7.36127 18.0799 7.20759C18.0848 7.05391 18.1201 6.90272 18.1838 6.76274C18.2474 6.62275 18.3381 6.49674 18.4506 6.39196C18.5631 6.28717 18.6953 6.20568 18.8394 6.15218C18.9836 6.09869 19.1369 6.07424 19.2905 6.08024C19.4442 6.08625 19.5951 6.12259 19.7347 6.18718C19.8742 6.25177 19.9996 6.34332 20.1036 6.45657C20.2076 6.56982 20.2882 6.7035 20.3407 6.84802Z" fill="black"/>
</svg>
